<svg xmlns="http://www.w3.org/2000/svg" width="1920" height="1080" viewBox="0 0 1920 1080">
  <defs>
    <linearGradient id="bg" x1="0" y1="0" x2="0" y2="1">
      <stop offset="0" stop-color="#241610"/>
      <stop offset="0.55" stop-color="#1a100b"/>
      <stop offset="1" stop-color="#0e0a07"/>
    </linearGradient>
    <radialGradient id="glow1" cx="0.5" cy="0.5" r="0.5">
      <stop offset="0" stop-color="#f5c37a" stop-opacity="0.55"/>
      <stop offset="1" stop-color="#f5c37a" stop-opacity="0"/>
    </radialGradient>
    <radialGradient id="glow2" cx="0.5" cy="0.5" r="0.5">
      <stop offset="0" stop-color="#ffd9a0" stop-opacity="0.35"/>
      <stop offset="1" stop-color="#ffd9a0" stop-opacity="0"/>
    </radialGradient>
    <radialGradient id="lamp" cx="0.5" cy="0.5" r="0.5">
      <stop offset="0" stop-color="#ffe9c4" stop-opacity="0.95"/>
      <stop offset="1" stop-color="#ffe9c4" stop-opacity="0"/>
    </radialGradient>
    <filter id="blur">
      <feGaussianBlur stdDeviation="28"/>
    </filter>
    <linearGradient id="table" x1="0" y1="0" x2="0" y2="1">
      <stop offset="0" stop-color="#4a2f1b"/>
      <stop offset="1" stop-color="#2a1a0f"/>
    </linearGradient>
  </defs>
  <rect width="1920" height="1080" fill="url(#bg)"/>
  <ellipse cx="960" cy="760" rx="900" ry="520" fill="url(#glow1)" filter="url(#blur)"/>
  <ellipse cx="420" cy="300" rx="520" ry="380" fill="url(#glow2)" filter="url(#blur)"/>
  <ellipse cx="1560" cy="260" rx="420" ry="320" fill="url(#glow2)" filter="url(#blur)" opacity="0.7"/>
  <rect x="120" y="150" width="380" height="480" rx="8" fill="#1d130d" stroke="#3a2a1a" stroke-width="3"/>
  <rect x="136" y="166" width="348" height="210" rx="4" fill="#101322"/>
  <path d="M136 196 L484 376 L484 166 L136 166 Z" fill="#1b2338" opacity="0.9"/>
  <circle cx="310" cy="280" r="46" fill="#f6d9a0" opacity="0.28" filter="url(#blur)"/>
  <path d="M136 376 L484 376 L484 610 L136 610 Z" fill="#241a12" stroke="#3a2a1a" stroke-width="3"/>
  <rect x="200" y="420" width="120" height="90" rx="6" fill="#2e2013"/>
  <rect x="360" y="420" width="120" height="90" rx="6" fill="#2e2013"/>
  <rect x="820" y="470" width="900" height="46" rx="23" fill="url(#table)"/>
  <rect x="820" y="516" width="900" height="16" rx="8" fill="#20130b"/>
  <ellipse cx="1320" cy="520" rx="180" ry="70" fill="#ffdf9e" opacity="0.16" filter="url(#blur)"/>
  <rect x="900" y="440" width="46" height="30" rx="8" fill="#5a3a1e"/>
  <rect x="1590" y="440" width="46" height="30" rx="8" fill="#5a3a1e"/>
  <path d="M900 440 q23 -70 46 0 Z" fill="#f5c37a" opacity="0.55"/>
  <path d="M1590 440 q23 -70 46 0 Z" fill="#f5c37a" opacity="0.55"/>
  <ellipse cx="923" cy="430" rx="26" ry="60" fill="url(#lamp)" filter="url(#blur)"/>
  <ellipse cx="1613" cy="430" rx="26" ry="60" fill="url(#lamp)" filter="url(#blur)" opacity="0.8"/>
  <rect x="760" y="620" width="420" height="300" rx="8" fill="#221610" stroke="#3a2a1a" stroke-width="3"/>
  <rect x="760" y="800" width="420" height="120" fill="#1a100b"/>
  <ellipse cx="970" cy="760" rx="90" ry="60" fill="#ffd9a0" opacity="0.14" filter="url(#blur)"/>
  <rect x="1280" y="650" width="400" height="270" rx="8" fill="#221610" stroke="#3a2a1a" stroke-width="3"/>
  <ellipse cx="1480" cy="770" rx="80" ry="55" fill="#ffd9a0" opacity="0.12" filter="url(#blur)"/>
  <path d="M0 960 Q 480 900 960 960 T 1920 950 L 1920 1080 L 0 1080 Z" fill="#0e0a07"/>
</svg>
