<svg xmlns="http://www.w3.org/2000/svg" width="640" height="440" viewBox="0 0 640 440">
<defs>
  <linearGradient id="bg" x1="0" y1="0" x2="1" y2="1">
    <stop offset="0" stop-color="#7fb7c9"/>
    <stop offset="1" stop-color="#3f7fa0"/>
  </linearGradient>
  <radialGradient id="glow" cx="0.5" cy="0.42" r="0.55">
    <stop offset="0" stop-color="#fff" stop-opacity="0.55"/>
    <stop offset="1" stop-color="#fff" stop-opacity="0"/>
  </radialGradient>
</defs>
<rect width="640" height="440" fill="url(#bg)"/>
<circle cx="530" cy="70" r="150" fill="#fff" opacity="0.13"/>
<circle cx="90" cy="400" r="130" fill="#fff" opacity="0.1"/>
<circle cx="600" cy="370" r="100" fill="#fff" opacity="0.09"/>
<circle cx="320" cy="215" r="210" fill="url(#glow)"/>

    <path d="M252 190 h116 l12 150 a12 12 0 0 1 -12 14 h-116 a12 12 0 0 1 -12 -14 Z" fill="#a83e5c" opacity="0.8"/>
    <path d="M262 190 h96 v150 a12 12 0 0 1 -12 12 h-72 a12 12 0 0 1 -12 -12 Z" fill="#c94f6e" opacity="0.85"/>
    <path d="M272 214 h76" stroke="#fff" stroke-width="4" opacity="0.2"/>
    <circle cx="290" cy="326" r="7" fill="#7a1c34"/>
    <circle cx="326" cy="332" r="6" fill="#7a1c34"/>
    <circle cx="352" cy="322" r="7" fill="#7a1c34"/>
    <rect x="252" y="172" width="20" height="12" rx="6" fill="#7a3f22"/>
    <circle cx="318" cy="172" r="8" fill="#7a1c34"/>
    <text x="320" y="420" text-anchor="middle" font-family="Georgia,serif" font-style="italic" font-size="26" fill="#fff" opacity="0.85">морс из клюквы</text>
</svg>