<svg xmlns="http://www.w3.org/2000/svg" width="640" height="440" viewBox="0 0 640 440">
<defs>
  <linearGradient id="bg" x1="0" y1="0" x2="1" y2="1">
    <stop offset="0" stop-color="#9dbf4e"/>
    <stop offset="1" stop-color="#5f8a26"/>
  </linearGradient>
  <radialGradient id="glow" cx="0.5" cy="0.42" r="0.55">
    <stop offset="0" stop-color="#fff" stop-opacity="0.55"/>
    <stop offset="1" stop-color="#fff" stop-opacity="0"/>
  </radialGradient>
</defs>
<rect width="640" height="440" fill="url(#bg)"/>
<circle cx="530" cy="70" r="150" fill="#fff" opacity="0.13"/>
<circle cx="90" cy="400" r="130" fill="#fff" opacity="0.1"/>
<circle cx="600" cy="370" r="100" fill="#fff" opacity="0.09"/>
<circle cx="320" cy="215" r="210" fill="url(#glow)"/>

    <path d="M165 300 a155 58 0 0 0 310 0 Z" fill="#e8c88a"/>
<ellipse cx="320" cy="300" rx="155" ry="58" fill="none" stroke="#e8c88a" stroke-width="4"/>
    <ellipse cx="320" cy="300" rx="132" ry="42" fill="#f7ecd0"/>
    <circle cx="276" cy="292" r="12" fill="#f0d8a0"/>
    <circle cx="300" cy="300" r="10" fill="#f0d8a0"/>
    <circle cx="340" cy="290" r="12" fill="#f0d8a0"/>
    <circle cx="360" cy="302" r="9" fill="#f0d8a0"/>
    <circle cx="318" cy="308" r="8" fill="#f0d8a0"/>
    <circle cx="280" cy="286" r="6" fill="#5f8a26"/>
    <circle cx="344" cy="308" r="6" fill="#5f8a26"/>
    <text x="320" y="420" text-anchor="middle" font-family="Georgia,serif" font-style="italic" font-size="26" fill="#fff" opacity="0.85">салат «Домашний»</text>
</svg>